<?xml version="1.0" standalone="no"?>
<!DOCTYPE svg PUBLIC "-//W3C//DTD SVG 20010904//EN"
 "http://www.w3.org/TR/2001/REC-SVG-20010904/DTD/svg10.dtd">
<svg version="1.0" xmlns="http://www.w3.org/2000/svg"
 width="1416.000000pt" height="1252.000000pt" viewBox="0 0 1416.000000 1252.000000"
 preserveAspectRatio="xMidYMid meet">

<g transform="translate(0.000000,1252.000000) scale(0.100000,-0.100000)"
fill="#0AE5FF" stroke="none">
<path d="M6497 12510 c-144 -16 -296 -67 -419 -141 -37 -22 -130 -89 -205
-150 -468 -374 -989 -627 -1598 -774 -429 -104 -925 -149 -1392 -126 -135 6
-322 21 -416 32 -382 44 -472 43 -642 -6 -397 -115 -696 -454 -754 -855 -35
-249 -50 -1283 -23 -1695 37 -570 106 -1165 180 -1557 l19 -96 -239 -239
c-132 -131 -264 -268 -294 -305 -106 -128 -178 -283 -204 -438 -6 -36 -19
-163 -29 -283 l-18 -219 -192 -192 -192 -192 -35 -419 c-19 -230 -33 -419 -32
-420 2 -1 81 7 175 19 l173 22 0 -35 c0 -20 -14 -198 -31 -396 -41 -480 -35
-569 52 -736 90 -173 254 -299 476 -365 130 -39 337 -44 573 -14 l175 22 215
211 215 212 8 80 c4 43 9 80 10 81 1 1 31 -4 67 -13 64 -15 247 -14 417 3 l62
6 28 -47 c40 -68 337 -514 365 -549 l24 -28 27 178 c16 101 33 182 40 186 7 4
26 8 44 8 68 0 67 3 -38 163 l-100 151 48 17 c103 35 228 108 305 177 21 19
40 33 42 31 2 -2 55 -80 118 -174 167 -250 194 -285 222 -285 72 0 6322 812
6333 823 6 7 50 84 97 172 l86 160 142 -3 c90 -2 186 3 257 12 63 9 116 16
118 16 2 0 -30 -67 -71 -148 l-74 -149 216 28 c118 16 219 32 223 36 4 5 36
69 70 143 34 74 67 140 73 147 6 6 47 25 91 42 112 43 193 99 318 220 l107
104 0 -39 c0 -21 -14 -194 -30 -384 -16 -189 -27 -346 -25 -348 9 -9 456 50
550 73 171 40 314 103 455 198 89 61 616 578 690 677 26 36 67 103 90 149 67
134 86 228 111 557 l22 289 194 195 193 194 35 420 c20 230 34 420 33 421 -2
2 -78 -6 -170 -18 -93 -11 -171 -17 -175 -14 -4 4 6 161 21 350 32 384 31 470
-8 592 -57 179 -187 325 -369 415 -203 100 -375 119 -708 80 l-194 -23 -134
-136 -134 -135 7 94 c3 52 9 164 13 248 3 85 10 152 16 152 5 0 23 -11 39 -25
129 -109 294 -82 353 57 21 52 20 65 -30 444 -24 186 -41 342 -37 345 4 3 156
107 337 229 388 263 412 281 436 334 50 110 -7 243 -120 281 -42 13 -79 12
-401 -9 -195 -13 -358 -21 -362 -17 -3 3 -24 146 -47 318 -22 172 -47 327 -54
345 -33 77 -137 136 -217 122 -44 -8 -100 -36 -122 -60 -9 -11 -42 -67 -73
-126 l-57 -108 -58 48 c-116 93 -261 168 -397 203 -156 40 -299 43 -528 10
-38 -6 -149 -17 -245 -25 -748 -64 -1429 10 -2056 225 -454 155 -825 358
-1196 655 -153 123 -246 182 -351 224 -151 60 -350 87 -510 70z m287 -380
c111 -28 192 -75 356 -206 614 -489 1354 -800 2180 -918 299 -43 434 -51 805
-50 350 0 549 13 814 49 257 36 410 5 588 -121 33 -24 77 -63 97 -86 l36 -41
-51 -96 c-28 -53 -54 -100 -59 -104 -4 -5 -73 -13 -154 -19 -127 -9 -151 -8
-186 6 -50 20 -114 20 -256 2 -378 -50 -980 -67 -1319 -38 -1097 96 -2018 446
-2778 1058 -136 110 -163 123 -247 124 -77 0 -118 -21 -247 -128 -285 -237
-711 -491 -1091 -651 -881 -373 -1888 -499 -2949 -371 -221 27 -264 26 -324
-6 -51 -28 -93 -80 -109 -132 -37 -131 -48 -1241 -16 -1692 27 -396 71 -791
125 -1128 l18 -112 -21 -4 c-12 -2 -63 -11 -115 -21 -51 -9 -132 -30 -180 -46
-47 -17 -95 -33 -106 -36 -20 -4 -23 5 -48 169 -122 768 -174 1586 -149 2327
15 438 26 581 53 668 66 216 225 381 438 457 78 28 98 30 211 31 69 0 211 -10
315 -22 1421 -168 2707 160 3684 941 80 63 173 129 207 146 143 70 325 89 478
50z m5392 -1355 c26 -203 51 -374 55 -379 4 -5 191 3 428 19 232 14 426 25
432 23 5 -2 -142 -107 -328 -233 -186 -126 -367 -250 -403 -275 l-66 -45 52
-400 c29 -220 51 -401 49 -403 -2 -2 -140 100 -306 226 l-302 230 -91 -61
c-50 -33 -232 -157 -405 -274 -172 -118 -315 -212 -318 -210 -2 3 93 190 212
416 118 227 215 415 215 419 -1 4 -135 108 -300 232 -164 124 -299 227 -299
230 -1 3 164 16 367 28 202 13 399 26 439 29 l72 6 218 418 c173 332 219 414
225 396 4 -12 28 -188 54 -392z m-2016 -1028 c74 -28 150 -104 178 -180 19
-50 29 -107 19 -107 -4 0 -217 -62 -257 -75 -16 -5 -20 -2 -20 14 0 57 -49
101 -113 101 -68 0 -147 -80 -147 -149 0 -72 41 -99 206 -137 58 -13 127 -36
155 -51 209 -113 212 -375 6 -569 -117 -111 -245 -161 -384 -151 -162 12 -301
129 -327 274 l-5 32 87 26 c48 14 107 33 131 41 59 19 58 19 71 -22 22 -65
113 -94 193 -60 38 15 94 76 103 111 9 37 -9 78 -46 99 -18 11 -79 30 -135 42
-160 35 -246 87 -300 178 -81 138 -35 328 114 468 142 134 310 176 471 115z
m-830 -64 c0 -77 -64 -803 -75 -856 -28 -128 -105 -249 -221 -348 -236 -200
-568 -205 -745 -11 -29 31 -63 80 -75 107 -45 99 -46 140 -9 596 18 232 35
423 38 425 6 6 266 29 271 23 3 -2 -8 -166 -24 -364 -16 -198 -30 -392 -30
-431 0 -93 27 -147 95 -189 43 -27 57 -30 124 -30 60 0 85 5 121 24 90 47 158
125 178 203 6 24 25 221 42 438 17 217 34 397 36 400 5 5 182 26 242 29 24 1
32 -3 32 -16z m-1768 -186 c-7 -98 -72 -938 -76 -967 l-3 -35 231 22 c127 12
248 22 269 23 l39 0 -8 -100 c-3 -55 -10 -115 -13 -133 l-7 -32 -399 -38
c-219 -20 -402 -34 -405 -30 -8 9 93 1289 102 1298 7 7 261 33 268 28 2 -2 3
-18 2 -36z m-547 -74 c-3 -32 -19 -225 -35 -428 -32 -409 -41 -456 -113 -567
-123 -193 -306 -303 -522 -315 -106 -6 -177 7 -256 47 -64 33 -146 117 -179
183 -56 115 -56 130 -20 599 18 233 37 427 42 433 10 11 261 37 269 27 3 -4
-9 -187 -28 -407 -18 -220 -30 -416 -27 -437 7 -46 46 -107 87 -135 133 -91
352 -6 423 163 12 28 26 154 50 453 18 227 35 415 37 417 5 5 162 21 225 23
l53 1 -6 -57z m-2913 -133 c126 -95 203 -202 215 -299 9 -76 -11 -70 -64 20
-62 106 -128 177 -209 229 -70 44 -83 62 -64 85 21 26 53 17 122 -35z m1373 6
c75 -24 204 -98 212 -122 2 -6 -44 -54 -102 -108 l-105 -98 -48 30 c-72 45
-113 55 -217 50 -83 -3 -101 -8 -170 -42 -102 -50 -190 -138 -236 -232 -29
-60 -34 -81 -37 -167 -4 -94 -3 -100 28 -163 37 -76 102 -133 181 -159 40 -14
74 -16 144 -13 105 6 180 35 268 102 l49 37 89 -88 89 -88 -55 -45 c-159 -130
-326 -193 -515 -194 -123 0 -210 22 -305 79 -77 45 -167 141 -206 220 -159
324 32 764 418 958 47 24 159 59 223 70 67 12 218 -2 295 -27z m6337 -33 c15
-13 18 -31 18 -97 0 -156 -36 -735 -56 -903 l-6 -53 -47 0 c-25 0 -128 -11
-228 -23 l-183 -23 0 21 c0 11 7 88 14 170 8 83 20 236 26 340 6 105 13 218
16 253 l6 62 196 135 c108 74 203 134 211 135 8 0 23 -7 33 -17z m-8022 -25
c30 -5 93 -28 140 -50 68 -32 100 -56 161 -117 121 -123 169 -243 169 -426 0
-219 -79 -407 -242 -576 -325 -338 -819 -387 -1098 -109 -117 117 -170 251
-170 430 0 222 85 416 259 591 221 220 494 310 781 257z m9292 -707 c190 -49
321 -155 378 -307 43 -116 43 -151 5 -609 -39 -473 -39 -467 26 -501 44 -22
144 -34 211 -25 54 7 57 6 63 -16 7 -28 -15 -318 -26 -349 -6 -17 -18 -22 -66
-27 -73 -6 -161 -39 -216 -80 -80 -61 -81 -68 -122 -567 -19 -245 -43 -479
-51 -520 -46 -222 -222 -428 -469 -550 -112 -55 -206 -84 -345 -105 -118 -18
-127 -18 -133 0 -4 8 0 88 8 177 8 90 15 170 15 179 0 13 14 18 61 23 80 9
186 49 233 88 72 59 73 60 116 577 21 257 44 489 50 515 25 114 88 229 179
328 l53 58 -48 52 c-60 68 -102 159 -116 257 -10 67 -7 131 20 462 40 478 40
478 5 511 -16 14 -46 31 -68 39 -42 13 -176 16 -212 5 -16 -5 -22 -2 -25 10
-4 21 23 367 29 374 9 10 105 17 234 19 105 1 153 -3 211 -18z m-1167 -587
c77 -27 156 -112 183 -194 34 -105 35 -142 16 -384 -16 -205 -20 -233 -39
-251 -17 -18 -50 -25 -200 -43 -99 -12 -194 -22 -212 -22 -58 0 -61 24 -37
306 11 123 -16 132 -288 95 -155 -21 -195 -39 -221 -98 -13 -29 -33 -224 -82
-823 -36 -432 -64 -800 -63 -819 2 -23 12 -40 31 -55 l27 -20 176 21 c284 35
284 35 310 365 10 120 15 221 11 224 -3 4 -48 1 -99 -5 -90 -12 -93 -12 -110
10 -22 26 -22 48 -3 258 11 132 18 168 32 182 14 15 83 26 342 58 214 26 330
37 341 31 10 -5 21 -21 24 -35 9 -35 -71 -992 -89 -1081 -48 -220 -201 -376
-427 -433 -40 -10 -212 -36 -383 -57 -284 -34 -316 -36 -389 -26 -209 31 -306
155 -306 391 0 151 147 1876 166 1946 34 130 129 258 237 323 104 63 181 82
497 123 329 43 463 46 555 13z m-9062 -106 c74 -61 154 -102 254 -129 43 -12
86 -26 97 -31 32 -17 2 -30 -67 -30 -109 0 -211 42 -344 144 -62 47 -69 62
-42 89 23 23 23 22 102 -43z m7425 -60 c7 -7 12 -30 12 -52 1 -23 -48 -628
-107 -1345 -87 -1057 -110 -1308 -123 -1324 -13 -16 -49 -23 -223 -45 -205
-25 -208 -25 -226 -6 -11 11 -103 295 -231 709 -117 380 -214 692 -216 694 -2
2 -6 2 -8 0 -3 -3 -32 -333 -65 -734 -54 -641 -63 -732 -79 -747 -14 -15 -62
-24 -225 -44 -113 -15 -213 -24 -222 -20 -8 3 -20 17 -25 31 -12 31 204 2664
220 2695 13 24 17 25 215 50 191 24 229 25 245 5 6 -8 107 -323 223 -701 117
-378 217 -689 222 -691 6 -2 33 268 70 727 52 621 63 732 78 747 12 12 61 23
184 39 198 25 265 28 281 12z m-1898 -238 c12 -12 20 -33 20 -52 0 -18 -49
-622 -109 -1341 -92 -1107 -111 -1311 -125 -1325 -12 -13 -70 -24 -224 -43
-114 -14 -214 -23 -223 -21 -43 10 -43 -2 71 1378 60 729 115 1334 120 1344
13 25 16 25 245 54 105 13 193 24 198 25 4 1 16 -8 27 -19z m-1065 -166 c32
-11 68 -36 101 -69 64 -64 94 -139 101 -250 6 -97 -141 -1878 -162 -1972 -33
-142 -128 -276 -246 -346 -114 -67 -181 -82 -631 -137 -227 -28 -444 -55 -481
-60 -80 -10 -93 -7 -101 25 -8 33 211 2671 224 2696 6 10 12 19 13 20 1 1 205
27 452 59 497 65 628 71 730 34z m-5195 -171 c-1 -52 -27 -344 -32 -348 -2 -2
-34 -9 -70 -15 -143 -22 -251 -89 -282 -173 -10 -27 -26 -173 -46 -422 -17
-209 -38 -416 -46 -460 -24 -129 -86 -244 -187 -352 l-50 -53 50 -52 c80 -85
123 -199 123 -326 0 -31 -16 -261 -36 -510 l-37 -453 19 -27 c38 -51 87 -67
206 -67 80 0 109 -3 113 -13 4 -11 -23 -363 -28 -369 -1 -1 -59 -7 -128 -14
-411 -40 -692 138 -725 459 -5 40 7 228 32 533 43 521 44 503 -23 541 -44 26
-139 40 -211 30 -52 -7 -61 -6 -65 8 -4 16 22 362 28 368 2 2 29 7 61 12 130
18 238 75 279 145 24 40 27 66 61 461 19 231 42 448 50 484 62 268 342 519
673 605 52 13 205 39 259 44 8 1 12 -12 12 -36z m3392 -48 c70 -25 139 -92
174 -167 48 -105 45 -172 -40 -1188 -44 -524 -82 -919 -91 -953 -50 -189 -186
-332 -374 -391 -99 -31 -536 -89 -676 -89 -253 0 -375 128 -375 392 0 151 147
1876 166 1946 34 130 129 258 237 323 100 60 184 82 452 118 283 37 442 40
527 9z m-1837 -209 c140 -37 217 -127 246 -288 10 -57 9 -107 -5 -291 -20
-263 -20 -263 -49 -281 -22 -14 -317 -56 -395 -56 -64 0 -67 13 -52 206 6 90
9 173 5 184 -4 12 -22 28 -41 36 -30 13 -50 13 -157 -1 -67 -9 -136 -20 -154
-26 -39 -12 -89 -67 -97 -106 -3 -15 -35 -386 -71 -823 -50 -592 -64 -800 -56
-817 18 -39 54 -46 166 -34 199 23 243 40 271 106 7 17 18 98 24 181 7 82 16
161 22 176 13 36 36 42 263 69 l179 21 18 -22 c10 -12 18 -37 18 -55 0 -79
-32 -406 -46 -473 -47 -219 -207 -378 -435 -431 -136 -32 -593 -84 -669 -76
-223 23 -330 151 -330 394 0 151 147 1876 166 1946 53 198 219 353 429 400
112 25 502 73 605 74 52 0 118 -5 145 -13z m8624 -492 c12 -19 21 -39 21 -44
0 -5 -14 -31 -31 -57 l-31 -48 6 49 c3 27 6 68 6 92 0 24 2 44 4 44 2 0 13
-16 25 -36z"/>
<path d="M3535 9124 c-108 -22 -138 -30 -190 -51 -135 -56 -298 -199 -373
-325 -77 -130 -112 -322 -83 -457 38 -178 196 -334 378 -371 92 -20 263 -8
351 23 217 76 409 266 484 477 19 56 23 85 23 206 l0 140 -39 78 c-89 182
-271 289 -481 285 -27 -1 -59 -3 -70 -5z m168 -204 c84 -26 164 -96 204 -178
24 -50 28 -69 28 -147 0 -104 -19 -170 -70 -251 -100 -156 -260 -247 -435
-247 -109 0 -180 26 -249 91 -159 150 -142 409 39 591 138 140 318 192 483
141z"/>
<path d="M3480 8746 c-136 -36 -229 -161 -218 -291 13 -154 174 -223 329 -142
200 103 216 376 25 432 -58 18 -76 18 -136 1z m139 -40 c28 -34 -36 -83 -67
-52 -13 12 -13 20 -4 41 13 28 52 34 71 11z m34 -77 c-17 -17 -37 -1 -22 17 8
10 15 12 23 4 7 -7 7 -13 -1 -21z"/>
<path d="M6735 6886 l-160 -21 -3 -30 c-2 -16 -36 -419 -75 -895 -57 -685 -70
-866 -59 -868 30 -8 346 40 381 57 42 22 68 62 76 117 3 21 35 388 70 814 69
833 68 810 15 837 -32 16 -50 15 -245 -11z"/>
<path d="M4995 6683 c-133 -17 -191 -42 -217 -94 -15 -30 -30 -169 -83 -810
-36 -426 -66 -800 -67 -831 -2 -66 10 -85 58 -94 44 -8 300 24 335 42 40 20
76 69 83 111 14 85 136 1620 131 1640 -7 28 -54 53 -97 52 -18 -1 -82 -8 -143
-16z"/>
<path d="M9552 2406 l-232 -31 -194 -205 c-570 -605 -1248 -1150 -2012 -1618
-238 -146 -305 -171 -469 -179 -92 -5 -124 -2 -195 16 -108 27 -175 61 -440
228 -485 304 -925 632 -1337 998 l-161 143 -224 -29 c-123 -16 -227 -30 -231
-32 -9 -3 178 -181 358 -343 234 -211 599 -499 905 -716 287 -203 717 -474
846 -534 266 -124 585 -129 861 -16 233 97 1035 641 1468 997 471 386 921 829
1280 1260 85 102 82 95 44 94 -19 -1 -139 -15 -267 -33z"/>
<path d="M6850 2059 c-927 -120 -1696 -219 -1710 -221 -22 -3 -11 -15 90 -99
316 -263 703 -539 1080 -771 227 -139 230 -141 315 -136 71 3 75 5 221 93 299
180 679 441 939 644 247 193 623 520 760 660 l49 51 -29 -1 c-17 -1 -788 -100
-1715 -220z"/>
</g>
</svg>
